<svg viewBox="0 0 400 225" fill="none" xmlns="http://www.w3.org/2000/svg">
  <rect width="400" height="225" fill="#0a0f0a"/>
  <line x1="200" y1="215" x2="200" y2="160" stroke="#4a8c3f" stroke-width="3" opacity="0.9"/>
  <line x1="200" y1="160" x2="155" y2="120" stroke="#4a8c3f" stroke-width="2.2" opacity="0.85"/>
  <line x1="200" y1="160" x2="245" y2="120" stroke="#4a8c3f" stroke-width="2.2" opacity="0.85"/>
  <line x1="155" y1="120" x2="120" y2="88"  stroke="#7abf6e" stroke-width="1.5" opacity="0.75"/>
  <line x1="155" y1="120" x2="168" y2="82"  stroke="#7abf6e" stroke-width="1.5" opacity="0.75"/>
  <line x1="245" y1="120" x2="232" y2="82"  stroke="#7abf6e" stroke-width="1.5" opacity="0.75"/>
  <line x1="245" y1="120" x2="278" y2="88"  stroke="#7abf6e" stroke-width="1.5" opacity="0.75"/>
  <line x1="120" y1="88"  x2="100" y2="62"  stroke="#7abf6e" stroke-width="1"   opacity="0.6"/>
  <line x1="120" y1="88"  x2="130" y2="58"  stroke="#7abf6e" stroke-width="1"   opacity="0.6"/>
  <line x1="168" y1="82"  x2="152" y2="54"  stroke="#7abf6e" stroke-width="1"   opacity="0.6"/>
  <line x1="168" y1="82"  x2="178" y2="52"  stroke="#7abf6e" stroke-width="1"   opacity="0.6"/>
  <line x1="232" y1="82"  x2="222" y2="52"  stroke="#7abf6e" stroke-width="1"   opacity="0.6"/>
  <line x1="232" y1="82"  x2="248" y2="54"  stroke="#7abf6e" stroke-width="1"   opacity="0.6"/>
  <line x1="278" y1="88"  x2="268" y2="58"  stroke="#7abf6e" stroke-width="1"   opacity="0.6"/>
  <line x1="278" y1="88"  x2="298" y2="62"  stroke="#7abf6e" stroke-width="1"   opacity="0.6"/>
  <line x1="100" y1="62"  x2="88"  y2="42"  stroke="#c8e6c0" stroke-width="0.7" opacity="0.5"/>
  <line x1="100" y1="62"  x2="108" y2="40"  stroke="#c8e6c0" stroke-width="0.7" opacity="0.5"/>
  <line x1="130" y1="58"  x2="120" y2="38"  stroke="#c8e6c0" stroke-width="0.7" opacity="0.5"/>
  <line x1="130" y1="58"  x2="138" y2="36"  stroke="#c8e6c0" stroke-width="0.7" opacity="0.5"/>
  <line x1="152" y1="54"  x2="143" y2="34"  stroke="#c8e6c0" stroke-width="0.7" opacity="0.5"/>
  <line x1="178" y1="52"  x2="185" y2="32"  stroke="#c8e6c0" stroke-width="0.7" opacity="0.5"/>
  <line x1="222" y1="52"  x2="215" y2="32"  stroke="#c8e6c0" stroke-width="0.7" opacity="0.5"/>
  <line x1="248" y1="54"  x2="255" y2="34"  stroke="#c8e6c0" stroke-width="0.7" opacity="0.5"/>
  <line x1="268" y1="58"  x2="260" y2="38"  stroke="#c8e6c0" stroke-width="0.7" opacity="0.5"/>
  <line x1="298" y1="62"  x2="290" y2="40"  stroke="#c8e6c0" stroke-width="0.7" opacity="0.5"/>
  <line x1="298" y1="62"  x2="308" y2="42"  stroke="#c8e6c0" stroke-width="0.7" opacity="0.5"/>
  <circle cx="88"  cy="40" r="3" fill="#f5c842" opacity="0.6"/>
  <circle cx="110" cy="38" r="3" fill="#f5c842" opacity="0.6"/>
  <circle cx="120" cy="36" r="3" fill="#f5c842" opacity="0.6"/>
  <circle cx="140" cy="33" r="3" fill="#f5c842" opacity="0.55"/>
  <circle cx="143" cy="32" r="3" fill="#f5c842" opacity="0.55"/>
  <circle cx="186" cy="30" r="3" fill="#f5c842" opacity="0.6"/>
  <circle cx="215" cy="30" r="3" fill="#f5c842" opacity="0.6"/>
  <circle cx="256" cy="32" r="3" fill="#f5c842" opacity="0.55"/>
  <circle cx="260" cy="36" r="3" fill="#f5c842" opacity="0.55"/>
  <circle cx="291" cy="38" r="3" fill="#f5c842" opacity="0.6"/>
  <circle cx="310" cy="40" r="3" fill="#f5c842" opacity="0.6"/>
  <text x="16" y="210" font-family="monospace" font-size="9" fill="#4a8c3f" opacity="0.5" letter-spacing="2">L-SYSTEM · FRACTAL · RECURSION</text>
</svg>
